<svg xmlns="http://www.w3.org/2000/svg" width="48" height="48" viewBox="0 0 48 48" fill="none"><circle cx="24" cy="24" r="19" stroke="CurrentColor" stroke-width="2" fill="none"></circle><path d="M15.5143 29C17.5319 31.443 20.5841 33 24 33C27.4158 33 30.4681 31.443 32.4856 29" stroke="CurrentColor" stroke-width="2" stroke-linecap="round" fill="none"></path><path d="M14 20.0001C14.4994 17.9572 17.2295 16.8652 19 18.0001C19.465 18.2982 19.702 18.5352 20 19.0001" stroke="CurrentColor" stroke-width="2" stroke-linecap="round" fill="none"></path><path d="M34 20.0001C33.5006 17.9572 30.7705 16.8652 29 18.0001C28.535 18.2982 28.298 18.5352 28 19.0001" stroke="CurrentColor" stroke-width="2" stroke-linecap="round" fill="none"></path><path d="M41 10.8162C39.403 12.1791 37.3429 13 35.094 13C30.6378 13 26.9226 9.77678 26.0841 5.5" stroke="CurrentColor" stroke-width="2" stroke-linecap="round" fill="none"></path><path d="M37 5C35.093 8.57223 31.3527 11 27.0507 11C23.347 11 20.0596 9.20051 18 6.42046" stroke="CurrentColor" stroke-width="2" stroke-linecap="round" fill="none"></path></svg>