<svg xmlns="http://www.w3.org/2000/svg" width="48" height="48" viewBox="0 0 48 48" fill="none"><path d="M23.874 7L22.9055 7.24926L23.0988 8H23.874V7ZM12.014 12.3365L12.3449 13.2802L13.0747 13.0242L13.0105 12.2535L12.014 12.3365ZM8.80528 21.0045L9.52745 21.6962L10.0474 21.1533L9.67046 20.503L8.80528 21.0045ZM11.0292 31.5139L12.022 31.6342L12.1135 30.8786L11.4096 30.5891L11.0292 31.5139ZM13.174 35.5598L14.1449 35.799L14.334 35.0317L13.6311 34.6704L13.174 35.5598ZM23.828 40.563L23.0239 39.9686L23.828 40.563ZM16.4993 13.6683C16.9773 13.9448 17.5891 13.7815 17.8656 13.3034C18.1421 12.8254 17.9788 12.2136 17.5007 11.9371L16.4993 13.6683ZM24.126 7V8H24.9012L25.0945 7.24926L24.126 7ZM35.986 12.3365L34.9895 12.2535L34.9253 13.0242L35.6551 13.2802L35.986 12.3365ZM39.1952 21.0036L38.33 20.5023L37.9536 21.1519L38.4723 21.6946L39.1952 21.0036ZM40.7785 27.1823L41.7444 27.4411L40.7785 27.1823ZM36.9706 31.5125L36.5898 30.5879L35.8861 30.8776L35.9779 31.6331L36.9706 31.5125ZM34.826 35.5598L34.3689 34.6704L33.666 35.0317L33.8551 35.799L34.826 35.5598ZM24.172 40.563L24.9761 39.9686L24.172 40.563ZM32.8345 11.0967C32.2899 11.1881 31.9224 11.7037 32.0138 12.2484C32.1052 12.7931 32.6208 13.1606 33.1655 13.0692L32.8345 11.0967ZM22.5007 31.1344C22.0227 30.8579 21.4109 31.0212 21.1344 31.4993C20.8579 31.9773 21.0212 32.5891 21.4993 32.8656L22.5007 31.1344ZM24 33.8795L23.1673 34.4332L24 35.6856L24.8327 34.4332L24 33.8795ZM21.5242 14.1484C21.0539 13.8589 20.4379 14.0055 20.1484 14.4758C19.8589 14.9461 20.0055 15.5621 20.4758 15.8516L21.5242 14.1484ZM23.1519 18.5299C23.4446 18.9983 24.0615 19.1407 24.5299 18.8481C24.9983 18.5554 25.1407 17.9385 24.8481 17.4701L23.1519 18.5299ZM26.5007 32.8656C26.9788 32.5891 27.1421 31.9773 26.8656 31.4993C26.5891 31.0212 25.9773 30.8579 25.4993 31.1344L26.5007 32.8656ZM26.5007 11.8656C26.9788 11.5891 27.1421 10.9773 26.8656 10.4993C26.5891 10.0212 25.9773 9.85785 25.4993 10.1344L26.5007 11.8656ZM23.1673 12.3258C22.8615 12.7857 22.9864 13.4065 23.4463 13.7122C23.9062 14.018 24.5269 13.8931 24.8327 13.4332L23.1673 12.3258ZM14 33C14.5523 33 15 32.5523 15 32C15 31.4477 14.5523 31 14 31V33ZM8.94922 22.5764C9.26755 22.1251 9.15976 21.5012 8.70845 21.1828C8.25714 20.8645 7.63321 20.9723 7.31488 21.4236L8.94922 22.5764ZM33.5595 30.942C33.026 30.7991 32.4777 31.1156 32.3347 31.6491C32.1918 32.1826 32.5084 32.7309 33.0418 32.8739L33.5595 30.942ZM41.9043 26.8445C42.0472 26.3111 41.7307 25.7627 41.1972 25.6198C40.6637 25.4769 40.1154 25.7934 39.9725 26.3269L41.9043 26.8445ZM17.7933 9.59468C18.2357 9.92525 18.8624 9.83457 19.1929 9.39214C19.5235 8.94971 19.4328 8.32307 18.9904 7.9925L17.7933 9.59468ZM29.0096 7.9925C28.5672 8.32307 28.4765 8.94971 28.8071 9.39214C29.1376 9.83457 29.7643 9.92525 30.2067 9.59468L29.0096 7.9925ZM23.874 8H24V6H23.874V8ZM20 5C21.3965 5 22.5725 5.95512 22.9055 7.24926L24.8424 6.75074C24.2874 4.59442 22.3312 3 20 3V5ZM17 8C17 6.34315 18.3431 5 20 5V3C17.2386 3 15 5.23858 15 8H17ZM13 12C13 10.3431 14.3431 9 16 9V7C13.2386 7 11 9.23858 11 12H13ZM13.0105 12.2535C13.0036 12.1701 13 12.0856 13 12H11C11 12.1411 11.0059 12.281 11.0174 12.4195L13.0105 12.2535ZM9 18C9 15.8202 10.3955 13.9637 12.3449 13.2802L11.6831 11.3928C8.95708 12.3487 7 14.9445 7 18H9ZM9.67046 20.503C9.24428 19.7677 9 18.9139 9 18H7C7 19.2755 7.34206 20.4741 7.94011 21.5059L9.67046 20.503ZM8 25.5C8 24.0237 8.58036 22.685 9.52745 21.6962L8.08311 20.3128C6.79374 21.6589 6 23.4878 6 25.5H8ZM11.4096 30.5891C9.40699 29.7655 8 27.7959 8 25.5H6C6 28.6344 7.92252 31.3175 10.6489 32.4388L11.4096 30.5891ZM12 32C12 31.8758 12.0075 31.7537 12.022 31.6342L10.0365 31.3937C10.0124 31.5928 10 31.7952 10 32H12ZM13.6311 34.6704C12.6605 34.1715 12 33.162 12 32H10C10 33.9405 11.1057 35.6211 12.7168 36.4492L13.6311 34.6704ZM12.203 35.3206C12.0702 35.8596 12 36.4223 12 37H14C14 36.5848 14.0504 36.1827 14.1449 35.799L12.203 35.3206ZM12 37C12 40.866 15.134 44 19 44V42C16.2386 42 14 39.7614 14 37H12ZM19 44C21.3102 44 23.3589 42.8799 24.6321 41.1575L23.0239 39.9686C22.1115 41.2028 20.6489 42 19 42V44ZM24.6321 41.1575C24.702 41.063 24.7689 40.9674 24.8331 40.8708L23.1669 39.7645C23.1214 39.8331 23.0737 39.9011 23.0239 39.9686L24.6321 41.1575ZM9 18C9 15.2386 11.2386 13 14 13V11C10.134 11 7 14.134 7 18H9ZM14 13C14.9124 13 15.7649 13.2435 16.4993 13.6683L17.5007 11.9371C16.4701 11.3409 15.2733 11 14 11V13ZM24.126 6H24V8H24.126V6ZM28 3C25.6688 3 23.7126 4.59442 23.1576 6.75074L25.0945 7.24926C25.4275 5.95512 26.6035 5 28 5V3ZM33 8C33 5.23858 30.7614 3 28 3V5C29.6569 5 31 6.34315 31 8H33ZM37 12C37 9.23858 34.7614 7 32 7V9C33.6569 9 35 10.3431 35 12H37ZM36.9826 12.4195C36.9941 12.281 37 12.1411 37 12H35C35 12.0856 34.9964 12.1701 34.9895 12.2535L36.9826 12.4195ZM41 18C41 14.9445 39.0429 12.3487 36.3169 11.3928L35.6551 13.2802C37.6045 13.9637 39 15.8202 39 18H41ZM40.0605 21.505C40.6582 20.4734 41 19.2751 41 18H39C39 18.9136 38.7559 19.7672 38.33 20.5023L40.0605 21.505ZM41.7444 27.4411C42.4482 24.8148 41.666 22.1413 39.9181 20.3127L38.4723 21.6946C39.7578 23.0394 40.3281 24.9995 39.8126 26.9235L41.7444 27.4411ZM37.3513 32.4372C39.4361 31.5788 41.1149 29.7905 41.7444 27.4411L39.8126 26.9235C39.3512 28.6453 38.1231 29.9565 36.5898 30.5879L37.3513 32.4372ZM38 32C38 31.7946 37.9876 31.5916 37.9633 31.3919L35.9779 31.6331C35.9925 31.753 36 31.8754 36 32H38ZM35.2832 36.4492C36.8943 35.6211 38 33.9405 38 32H36C36 33.162 35.3395 34.1715 34.3689 34.6704L35.2832 36.4492ZM33.8551 35.799C33.9496 36.1827 34 36.5848 34 37H36C36 36.4223 35.9298 35.8596 35.797 35.3206L33.8551 35.799ZM34 37C34 39.7614 31.7614 42 29 42V44C32.866 44 36 40.866 36 37H34ZM29 42C27.3511 42 25.8885 41.2028 24.9761 39.9686L23.3679 41.1575C24.6411 42.8799 26.6898 44 29 44V42ZM24.9761 39.9686C24.9263 39.9011 24.8786 39.8331 24.8331 39.7645L23.1669 40.8708C23.2311 40.9674 23.298 41.063 23.3679 41.1575L24.9761 39.9686ZM41 18C41 14.134 37.866 11 34 11V13C36.7614 13 39 15.2386 39 18H41ZM34 11C33.6036 11 33.2142 11.033 32.8345 11.0967L33.1655 13.0692C33.4362 13.0238 33.715 13 34 13V11ZM21.4993 32.8656C22.1685 33.2527 22.7402 33.7908 23.1673 34.4332L24.8327 33.3258C24.2358 32.428 23.4371 31.6761 22.5007 31.1344L21.4993 32.8656ZM20.4758 15.8516C21.5445 16.5094 22.463 17.4273 23.1519 18.5299L24.8481 17.4701C24.0009 16.1143 22.8638 14.973 21.5242 14.1484L20.4758 15.8516ZM25.4993 31.1344C24.5629 31.6761 23.7642 32.428 23.1673 33.3258L24.8327 34.4332C25.2598 33.7908 25.8315 33.2527 26.5007 32.8656L25.4993 31.1344ZM25.4993 10.1344C24.5629 10.6761 23.7642 11.428 23.1673 12.3258L24.8327 13.4332C25.2598 12.7908 25.8315 12.2527 26.5007 11.8656L25.4993 10.1344ZM14 31C10.6108 31 8 28.4781 8 25.5294H6C6 29.7279 9.65723 33 14 33V31ZM8 25.5294C8 24.4453 8.34533 23.4325 8.94922 22.5764L7.31488 21.4236C6.48683 22.5975 6 24.0093 6 25.5294H8ZM33.0418 32.8739C36.9241 33.9141 40.7871 31.0138 41.9043 26.8445L39.9725 26.3269C39.0548 29.7517 36.0787 31.617 33.5595 30.942L33.0418 32.8739ZM16 9C16.6738 9 17.2931 9.22093 17.7933 9.59468L18.9904 7.9925C18.1564 7.36935 17.1199 7 16 7V9ZM32 7C30.8801 7 29.8436 7.36935 29.0096 7.9925L30.2067 9.59468C30.7069 9.22093 31.3262 9 32 9V7ZM23 7V40.3177H25V7H23Z" fill="CurrentColor"></path></svg>