<svg xmlns="http://www.w3.org/2000/svg" width="60" height="60" viewBox="0 0 60 60" fill="none"><rect width="60" height="60" rx="30" fill="#DCE8FA"></rect><path d="M30.0035 24L29.0873 25.7816C28.8818 26.1743 29.053 26.5 29.4555 26.5H30.543C30.954 26.5 31.1167 26.8257 30.9112 27.2184L30.0035 29" stroke="CurrentColor" stroke-width="2" stroke-linecap="round" stroke-linejoin="round" fill="none"></path><path d="M33 33.3264L32.5709 32.4231C32.2222 32.5888 32 32.9403 32 33.3264H33ZM27 33.3264H28C28 32.9403 27.7778 32.5888 27.4291 32.4231L27 33.3264ZM27 37H26C26 37.5523 26.4477 38 27 38V37ZM33 37V38C33.5523 38 34 37.5523 34 37H33ZM36 27C36 29.392 34.6003 31.459 32.5709 32.4231L33.4291 34.2296C36.1296 32.9468 38 30.1928 38 27H36ZM30 21C33.3137 21 36 23.6863 36 27H38C38 22.5817 34.4183 19 30 19V21ZM24 27C24 23.6863 26.6863 21 30 21V19C25.5817 19 22 22.5817 22 27H24ZM27.4291 32.4231C25.3997 31.459 24 29.392 24 27H22C22 30.1928 23.8704 32.9468 26.5709 34.2296L27.4291 32.4231ZM28 37V33.3264H26V37H28ZM33 36H27V38H33V36ZM32 33.3264V37H34V33.3264H32Z" fill="CurrentColor"></path><line x1="29" y1="41" x2="31" y2="41" stroke="CurrentColor" stroke-width="2" stroke-linecap="round" fill="none"></line></svg>