<svg xmlns="http://www.w3.org/2000/svg" width="50" height="50" viewBox="0 0 50 50" fill="none"><path d="M35.0001 29.9201V32.9201C35.0012 33.1986 34.9441 33.4743 34.8326 33.7294C34.721 33.9846 34.5574 34.2137 34.3521 34.402C34.1469 34.5902 33.9046 34.7336 33.6408 34.8228C33.377 34.912 33.0974 34.9452 32.8201 34.9201C29.7429 34.5857 26.7871 33.5342 24.1901 31.8501C21.7739 30.3148 19.7254 28.2663 18.1901 25.8501C16.5 23.2413 15.4483 20.2711 15.1201 17.1801C15.0951 16.9036 15.1279 16.6249 15.2166 16.3617C15.3052 16.0986 15.4476 15.8568 15.6348 15.6517C15.822 15.4466 16.0499 15.2828 16.3038 15.1706C16.5578 15.0584 16.8324 15.0004 17.1101 15.0001H20.1101C20.5954 14.9953 21.0658 15.1672 21.4338 15.4836C21.8018 15.8001 22.0421 16.2395 22.1101 16.7201C22.2367 17.6802 22.4715 18.6228 22.8101 19.5301C22.9446 19.888 22.9737 20.277 22.894 20.651C22.8142 21.0249 22.6289 21.3682 22.3601 21.6401L21.0901 22.9101C22.5136 25.4136 24.5865 27.4865 27.0901 28.9101L28.3601 27.6401C28.6319 27.3712 28.9752 27.1859 29.3492 27.1062C29.7231 27.0264 30.1121 27.0556 30.4701 27.1901C31.3773 27.5286 32.32 27.7635 33.2801 27.8901C33.7658 27.9586 34.2095 28.2033 34.5266 28.5776C34.8437 28.9519 35.0122 29.4297 35.0001 29.9201Z" stroke="white" stroke-width="2" stroke-linecap="round" stroke-linejoin="round"></path><rect x="1" y="1" width="48" height="48" rx="24" stroke="white" stroke-width="2"></rect></svg>