<svg xmlns="http://www.w3.org/2000/svg" width="60" height="60" viewBox="0 0 60 60" fill="none"><rect width="60" height="60" rx="30" fill="#DCE8FA"></rect><path d="M26.5 29C28.7091 29 30.5 27.2091 30.5 25C30.5 22.7909 28.7091 21 26.5 21C24.2909 21 22.5 22.7909 22.5 25C22.5 27.2091 24.2909 29 26.5 29Z" stroke="CurrentColor" stroke-width="2" stroke-linecap="round" stroke-linejoin="round" fill="none"></path><path d="M35 29L37 31L41 27" stroke="CurrentColor" stroke-width="2" stroke-linecap="round" stroke-linejoin="round" fill="none"></path><path d="M33 39C33 39.5523 33.4477 40 34 40C34.5523 40 35 39.5523 35 39H33ZM18 39C18 39.5523 18.4477 40 19 40C19.5523 40 20 39.5523 20 39H18ZM25 34H28V32H25V34ZM28 34C30.7614 34 33 36.2386 33 39H35C35 35.134 31.866 32 28 32V34ZM25 32C21.134 32 18 35.134 18 39H20C20 36.2386 22.2386 34 25 34V32Z" fill="CurrentColor"></path></svg>