<svg xmlns="http://www.w3.org/2000/svg" width="60" height="60" viewBox="0 0 60 60" fill="none"><rect width="60" height="60" rx="30" fill="#DCE8FA"></rect><path d="M34 39C34 39.5523 34.4477 40 35 40C35.5523 40 36 39.5523 36 39H34ZM18 39C18 39.5523 18.4477 40 19 40C19.5523 40 20 39.5523 20 39H18ZM25.4 34H28.6V32H25.4V34ZM28.6 34C31.6441 34 34 36.2984 34 39H36C36 35.0742 32.6251 32 28.6 32V34ZM25.4 32C21.3749 32 18 35.0742 18 39H20C20 36.2984 22.3559 34 25.4 34V32Z" fill="CurrentColor"></path><path d="M40 38.9999C40 39.5522 40.4477 39.9999 41 39.9999C41.5523 39.9999 42 39.5522 42 38.9999H40ZM37.3548 32.5011C36.8384 32.3051 36.261 32.5649 36.0651 33.0812C35.8691 33.5976 36.1288 34.175 36.6452 34.371L37.3548 32.5011ZM36.6452 34.371C38.6458 35.1302 40 36.9419 40 38.9999H42C42 36.0218 40.0451 33.5221 37.3548 32.5011L36.6452 34.371Z" fill="CurrentColor"></path><path d="M27 29C29.2091 29 31 27.2091 31 25C31 22.7909 29.2091 21 27 21C24.7909 21 23 22.7909 23 25C23 27.2091 24.7909 29 27 29Z" stroke="CurrentColor" stroke-width="2" stroke-linecap="round" stroke-linejoin="round" fill="none"></path><path d="M34 21.1299C34.8604 21.3502 35.623 21.8506 36.1676 22.5522C36.7122 23.2538 37.0078 24.1167 37.0078 25.0049C37.0078 25.8931 36.7122 26.756 36.1676 27.4576C35.623 28.1592 34.8604 28.6596 34 28.8799" stroke="CurrentColor" stroke-width="2" stroke-linecap="round" stroke-linejoin="round" fill="none"></path></svg>