<svg xmlns="http://www.w3.org/2000/svg" width="48" height="48" viewBox="0 0 48 48" fill="none"><path d="M5.5 26H16L19 18L24 32L29 20L32 26H42.5" stroke="CurrentColor" stroke-width="2" stroke-linecap="round" stroke-linejoin="round" fill="none"></path><path d="M41.7614 9.27107C40.7352 8.23404 39.5167 7.4114 38.1756 6.85014C36.8345 6.28888 35.397 6 33.9453 6C32.4937 6 31.0562 6.28888 29.7151 6.85014C28.374 7.4114 27.1555 8.23404 26.1293 9.27107L23.9995 11.4223L21.8696 9.27107C19.7967 7.17733 16.9852 6.00109 14.0536 6.00109C11.122 6.00109 8.31047 7.17733 6.23752 9.27107C4.5 11.026 3 14.2045 3 17.1655C3 29.1204 12 37 23.9995 43C36 37 45 29 45 17.1655C45 15.6993 44.6125 14 44.1583 12.8929C43.6026 11.5383 42.7881 10.3076 41.7614 9.27107Z" stroke="CurrentColor" stroke-width="2" stroke-linecap="round" stroke-linejoin="round" fill="none"></path></svg>