<svg xmlns="http://www.w3.org/2000/svg" width="24" height="24" viewBox="0 0 24 24" fill="none"><path d="M12.0035 6L11.0873 7.78161C10.8818 8.17433 11.053 8.5 11.4555 8.5H12.543C12.954 8.5 13.1167 8.82567 12.9112 9.21839L12.0035 11" stroke="#4E97FD" stroke-width="2" stroke-linecap="round" stroke-linejoin="round"></path><path d="M15 15.3264L14.5709 14.4231C14.2222 14.5888 14 14.9403 14 15.3264H15ZM9 15.3264H10C10 14.9403 9.77779 14.5888 9.42909 14.4231L9 15.3264ZM9 19H8C8 19.5523 8.44772 20 9 20V19ZM15 19V20C15.5523 20 16 19.5523 16 19H15ZM18 9C18 11.392 16.6003 13.459 14.5709 14.4231L15.4291 16.2296C18.1296 14.9468 20 12.1928 20 9H18ZM12 3C15.3137 3 18 5.68629 18 9H20C20 4.58172 16.4183 1 12 1V3ZM6 9C6 5.68629 8.68629 3 12 3V1C7.58172 1 4 4.58172 4 9H6ZM9.42909 14.4231C7.39967 13.459 6 11.392 6 9H4C4 12.1928 5.87043 14.9468 8.57091 16.2296L9.42909 14.4231ZM10 19V15.3264H8V19H10ZM15 18H9V20H15V18ZM14 15.3264V19H16V15.3264H14Z" fill="#4E97FD"></path><line x1="11" y1="23" x2="13" y2="23" stroke="#4E97FD" stroke-width="2" stroke-linecap="round"></line></svg>