<svg xmlns="http://www.w3.org/2000/svg" width="48" height="48" viewBox="0 0 48 48" fill="none"><path d="M6.90479 6.42029C5.37779 8.24826 5.00006 10.3608 5 12.3457C4.99989 15.6475 7.27439 20.0383 8.44776 22.0837C8.8815 22.8398 9.1528 23.678 9.21984 24.5471C9.57103 29.1 11.0876 43.7839 16 43C18.7858 42.5554 20.03 39.5127 20.2443 35.7236C20.4611 31.8897 20.6717 28.1662 24 28.1662C27.3284 28.1662 27.539 31.8897 27.7558 35.7236C27.9701 39.5127 29.2083 42.5936 32 43C37.7148 43.8319 38.6755 29.5926 38.837 24.7816C38.8713 23.7607 39.1851 22.7766 39.7076 21.8988C40.9148 19.8704 43 15.8584 43 12.3457C43 9.90006 42.7037 8.16738 41.0952 6.42029C36.0816 0.974637 30.676 6.42029 23.9999 6.42029C17.3238 6.42029 11.4539 0.974638 6.90479 6.42029Z" stroke="CurrentColor" stroke-width="2" fill="none"></path><circle cx="35" cy="13" r="3" stroke="CurrentColor" stroke-width="2" fill="none"></circle></svg>