<svg xmlns="http://www.w3.org/2000/svg" width="24" height="24" viewBox="0 0 24 24" fill="none"><path d="M8.5 11C10.7091 11 12.5 9.20914 12.5 7C12.5 4.79086 10.7091 3 8.5 3C6.29086 3 4.5 4.79086 4.5 7C4.5 9.20914 6.29086 11 8.5 11Z" stroke="#4E97FD" stroke-width="2" stroke-linecap="round" stroke-linejoin="round"></path><path d="M17 11L19 13L23 9" stroke="#4E97FD" stroke-width="2" stroke-linecap="round" stroke-linejoin="round"></path><path d="M15 21C15 21.5523 15.4477 22 16 22C16.5523 22 17 21.5523 17 21H15ZM0 21C0 21.5523 0.447715 22 1 22C1.55228 22 2 21.5523 2 21H0ZM7 16H10V14H7V16ZM10 16C12.7614 16 15 18.2386 15 21H17C17 17.134 13.866 14 10 14V16ZM7 14C3.13401 14 0 17.134 0 21H2C2 18.2386 4.23858 16 7 16V14Z" fill="#4E97FD"></path></svg>