<svg xmlns="http://www.w3.org/2000/svg" width="24" height="24" viewBox="0 0 24 24" fill="none"><path d="M16 21C16 21.5523 16.4477 22 17 22C17.5523 22 18 21.5523 18 21H16ZM0 21C0 21.5523 0.447715 22 1 22C1.55228 22 2 21.5523 2 21H0ZM7.4 16H10.6V14H7.4V16ZM10.6 16C13.6441 16 16 18.2984 16 21H18C18 17.0742 14.6251 14 10.6 14V16ZM7.4 14C3.37487 14 0 17.0742 0 21H2C2 18.2984 4.35589 16 7.4 16V14Z" fill="#4E97FD"></path><path d="M22 21C22 21.5523 22.4477 22 23 22C23.5523 22 24 21.5523 24 21H22ZM19.3548 14.5012C18.8384 14.3053 18.261 14.565 18.0651 15.0814C17.8691 15.5977 18.1288 16.1751 18.6452 16.3711L19.3548 14.5012ZM18.6452 16.3711C20.6458 17.1303 22 18.9421 22 21H24C24 18.0219 22.0451 15.5222 19.3548 14.5012L18.6452 16.3711Z" fill="#4E97FD"></path><path d="M9 11C11.2091 11 13 9.20914 13 7C13 4.79086 11.2091 3 9 3C6.79086 3 5 4.79086 5 7C5 9.20914 6.79086 11 9 11Z" stroke="#4E97FD" stroke-width="2" stroke-linecap="round" stroke-linejoin="round"></path><path d="M16 3.13C16.8604 3.35031 17.623 3.85071 18.1676 4.55232C18.7122 5.25392 19.0078 6.11683 19.0078 7.005C19.0078 7.89318 18.7122 8.75608 18.1676 9.45769C17.623 10.1593 16.8604 10.6597 16 10.88" stroke="#4E97FD" stroke-width="2" stroke-linecap="round" stroke-linejoin="round"></path></svg>